<svg id="visual" viewBox="0 0 540 960" width="540" height="960" xmlns="http://www.w3.org/2000/svg" xmlns:xlink="http://www.w3.org/1999/xlink" version="1.1"><rect x="0" y="0" width="540" height="960" fill="#001220"></rect><defs><linearGradient id="grad1_0" x1="0%" y1="0%" x2="100%" y2="100%"><stop offset="30%" stop-color="#001220" stop-opacity="1"></stop><stop offset="70%" stop-color="#001220" stop-opacity="1"></stop></linearGradient></defs><defs><linearGradient id="grad2_0" x1="0%" y1="0%" x2="100%" y2="100%"><stop offset="30%" stop-color="#001220" stop-opacity="1"></stop><stop offset="70%" stop-color="#001220" stop-opacity="1"></stop></linearGradient></defs><g transform="translate(540, 0)"><path d="M0 270C-49.5 264.2 -99 258.5 -135 233.8C-171 209.2 -193.6 165.6 -213.9 123.5C-234.2 81.4 -252.1 40.7 -270 0L0 0Z" fill="#fa3c64"></path></g><g transform="translate(0, 960)"><path d="M0 -270C40.4 -251.6 80.8 -233.2 123 -213C165.2 -192.8 209 -170.8 233.8 -135C258.6 -99.2 264.3 -49.6 270 0L0 0Z" fill="#fa3c64"></path></g></svg>