<svg id="visual" viewBox="0 0 600 900" width="600" height="900" xmlns="http://www.w3.org/2000/svg" xmlns:xlink="http://www.w3.org/1999/xlink" version="1.1"><rect x="0" y="0" width="600" height="900" fill="#001220"></rect><defs><linearGradient id="grad1_0" x1="0%" y1="0%" x2="100%" y2="100%"><stop offset="30%" stop-color="#001220" stop-opacity="1"></stop><stop offset="70%" stop-color="#001220" stop-opacity="1"></stop></linearGradient></defs><defs><linearGradient id="grad2_0" x1="0%" y1="0%" x2="100%" y2="100%"><stop offset="30%" stop-color="#001220" stop-opacity="1"></stop><stop offset="70%" stop-color="#001220" stop-opacity="1"></stop></linearGradient></defs><g transform="translate(600, 0)"><path d="M0 459.7C-62.1 454.7 -124.2 449.8 -175.9 424.7C-227.6 399.7 -268.9 354.5 -311.1 311.1C-353.3 267.7 -396.4 226.1 -421.3 174.5C-446.2 122.9 -453 61.5 -459.7 0L0 0Z" fill="#fa3c64"></path></g><g transform="translate(0, 900)"><path d="M0 -459.7C56.9 -445.8 113.8 -431.9 170.7 -412.1C227.6 -392.2 284.6 -366.5 325.1 -325.1C365.6 -283.6 389.6 -226.3 409.3 -169.5C429 -112.7 444.3 -56.4 459.7 0L0 0Z" fill="#fa3c64"></path></g></svg>