<svg id="visual" viewBox="0 0 960 540" width="960" height="540" xmlns="http://www.w3.org/2000/svg" xmlns:xlink="http://www.w3.org/1999/xlink" version="1.1"><rect x="0" y="0" width="960" height="540" fill="#001220"></rect><defs><linearGradient id="grad1_0" x1="43.8%" y1="0%" x2="100%" y2="100%"><stop offset="14.444444444444446%" stop-color="#001220" stop-opacity="1"></stop><stop offset="85.55555555555554%" stop-color="#001220" stop-opacity="1"></stop></linearGradient></defs><defs><linearGradient id="grad2_0" x1="0%" y1="0%" x2="56.3%" y2="100%"><stop offset="14.444444444444446%" stop-color="#001220" stop-opacity="1"></stop><stop offset="85.55555555555554%" stop-color="#001220" stop-opacity="1"></stop></linearGradient></defs><g transform="translate(960, 0)"><path d="M0 459C-60.9 453 -121.8 447 -175.7 424.1C-229.5 401.1 -276.4 361.2 -317.5 317.5C-358.6 273.7 -394 226.1 -416.7 172.6C-439.3 119 -449.2 59.5 -459 0L0 0Z" fill="#fa3c64"></path></g><g transform="translate(0, 540)"><path d="M0 -459C61.9 -453.9 123.8 -448.8 175.7 -424.1C227.5 -399.3 269.3 -355 311.8 -311.8C354.3 -268.7 397.6 -226.7 422.2 -174.9C446.9 -123.1 452.9 -61.6 459 0L0 0Z" fill="#fa3c64"></path></g></svg>