<svg id="visual" viewBox="0 0 960 540" width="960" height="540" xmlns="http://www.w3.org/2000/svg" xmlns:xlink="http://www.w3.org/1999/xlink" version="1.1"><rect x="0" y="0" width="960" height="540" fill="#001220"></rect><defs><linearGradient id="grad1_0" x1="43.8%" y1="0%" x2="100%" y2="100%"><stop offset="14.444444444444446%" stop-color="#001220" stop-opacity="1"></stop><stop offset="85.55555555555554%" stop-color="#001220" stop-opacity="1"></stop></linearGradient></defs><defs><linearGradient id="grad2_0" x1="0%" y1="0%" x2="56.3%" y2="100%"><stop offset="14.444444444444446%" stop-color="#001220" stop-opacity="1"></stop><stop offset="85.55555555555554%" stop-color="#001220" stop-opacity="1"></stop></linearGradient></defs><g transform="translate(960, 0)"><path d="M0 405C-43.8 381.1 -87.6 357.3 -142 342.8C-196.4 328.3 -261.4 323.1 -286.4 286.4C-311.4 249.6 -296.4 181.2 -309.5 128.2C-322.6 75.2 -363.8 37.6 -405 0L0 0Z" fill="#fa3c64"></path></g><g transform="translate(0, 540)"><path d="M0 -405C46.4 -375.2 92.9 -345.3 132.4 -319.7C172 -294 204.6 -272.5 248.2 -248.2C291.8 -223.9 346.2 -196.8 374.2 -155C402.1 -113.2 403.6 -56.6 405 0L0 0Z" fill="#fa3c64"></path></g></svg>