<?xml version="1.0" encoding="utf-8"?>
<!-- Generator: Adobe Illustrator 26.0.2, SVG Export Plug-In . SVG Version: 6.00 Build 0)  -->
<svg version="1.1" id="Layer_1" xmlns="http://www.w3.org/2000/svg" xmlns:xlink="http://www.w3.org/1999/xlink" x="0px" y="0px"
	 viewBox="0 0 500 515" style="enable-background:new 0 0 500 515;" xml:space="preserve">
<style type="text/css">
	.st0{fill:#3953A3;}
	.st1{fill:#40CAE0;}
	.st2{fill:#1A305A;}
	.st3{fill:#EC1E24;}
	.st4{fill:#7F1718;}
</style>
<g>
	<polygon class="st0" points="250.4,515.3 0.4,331.7 0.4,22.4 250.4,136.5 250.4,231.2 53.8,127.9 53.8,290 250.4,420.6 	"/>
	<polyline class="st1" points="250.4,136.5 0.4,22.4 69.3,0.4 250.4,74.8 431.3,0.5 500.4,22.4 250.1,136.5 	"/>
	<polygon class="st2" points="123.4,164.4 123.6,255.7 53.8,290 53.8,127.9 	"/>
	<polygon class="st3" points="250.4,515.3 500.4,331.7 500.4,22.4 250.1,136.5 250.4,231.2 446.9,127.9 446.9,290 250.4,420.6 	"/>
	<polygon class="st4" points="377.1,164.4 377.1,255.8 446.9,290 446.9,127.9 	"/>
	<polyline class="st1" points="250.4,420.6 53.8,290 123.6,255.7 250.4,331.7 377.3,255.6 446.9,290 250.4,420.6 	"/>
</g>
</svg>
