<?xml version="1.0" encoding="utf-8"?>
<!-- Generator: Adobe Illustrator 26.0.2, SVG Export Plug-In . SVG Version: 6.00 Build 0)  -->
<svg version="1.1" id="Layer_2" xmlns="http://www.w3.org/2000/svg" xmlns:xlink="http://www.w3.org/1999/xlink" x="0px" y="0px"
	 viewBox="0 0 640 360" style="enable-background:new 0 0 640 360;" xml:space="preserve">
<style type="text/css">
	.st0{fill:#FBFAFA;}
	.st1{fill:none;stroke:#001220;stroke-width:3;stroke-miterlimit:10;}
	.st2{fill:#001220;}
</style>
<path class="st0" d="M0,0v360h640V0H0z M631.45,351.44H10.21V10.2h621.24V351.44z"/>
<rect x="9.8" y="9.79" class="st1" width="621.24" height="341.24"/>
<g>
	<rect x="1.53" y="1.53" class="st0" width="17.33" height="17.33"/>
	<path class="st2" d="M17.33,3.05v14.26H3.05V3.05H17.33 M20.38,0H0v20.38h20.38V0L20.38,0z"/>
</g>
<g>
	<rect x="311.34" y="1.53" class="st0" width="17.33" height="17.33"/>
	<path class="st2" d="M327.14,3.06v14.26h-14.26V3.06H327.14 M330.19,0h-20.38v20.38h20.38V0L330.19,0z"/>
</g>
<g>
	<rect x="621.15" y="169.69" class="st0" width="17.33" height="17.33"/>
	<path class="st2" d="M636.95,171.23v14.26h-14.26v-14.26H636.95 M640,168.17h-20.38v20.38H640V168.17L640,168.17z"/>
</g>
<g>
	<rect x="1.53" y="172.98" class="st0" width="17.33" height="17.33"/>
	<path class="st2" d="M17.33,174.51v14.26H3.05v-14.26H17.33 M20.38,171.45H0v20.38h20.38V171.45L20.38,171.45z"/>
</g>
<g>
	<rect x="311.34" y="341.15" class="st0" width="17.33" height="17.33"/>
	<path class="st2" d="M327.14,342.67v14.26h-14.26v-14.26H327.14 M330.19,339.62h-20.38V360h20.38V339.62L330.19,339.62z"/>
</g>
<g>
	<rect x="621.15" y="1.53" class="st0" width="17.33" height="17.33"/>
	<path class="st2" d="M636.95,3.05v14.26h-14.26V3.05H636.95 M640,0h-20.38v20.38H640V0L640,0z"/>
</g>
<g>
	<rect x="1.53" y="341.15" class="st0" width="17.33" height="17.33"/>
	<path class="st2" d="M17.33,342.67v14.26H3.05v-14.26H17.33 M20.38,339.62H0V360h20.38V339.62L20.38,339.62z"/>
</g>
<g>
	<rect x="621.15" y="341.15" class="st0" width="17.33" height="17.33"/>
	<path class="st2" d="M636.95,342.67v14.26h-14.26v-14.26H636.95 M640,339.62h-20.38V360H640V339.62L640,339.62z"/>
</g>
</svg>
