<?xml version="1.0" standalone="no"?>
<!DOCTYPE svg PUBLIC "-//W3C//DTD SVG 20010904//EN"
 "http://www.w3.org/TR/2001/REC-SVG-20010904/DTD/svg10.dtd">
<svg version="1.0" xmlns="http://www.w3.org/2000/svg"
 width="515.000000pt" height="515.000000pt" viewBox="0 0 515.000000 515.000000"
 preserveAspectRatio="xMidYMid meet">
<metadata>
Created by potrace 1.14, written by Peter Selinger 2001-2017
</metadata>
<g transform="translate(0.000000,515.000000) scale(0.100000,-0.100000)"
fill="#000000" stroke="none">
<path d="M750 5143 c-8 -3 -24 -8 -35 -13 -11 -4 -74 -24 -140 -45 -66 -20
-127 -39 -135 -42 -8 -3 -19 -7 -25 -9 -5 -1 -62 -19 -125 -39 -63 -21 -136
-44 -162 -52 -27 -8 -49 -18 -50 -21 0 -4 -2 -701 -3 -1549 l-2 -1543 26 -17
c53 -34 296 -217 299 -225 2 -4 9 -8 16 -8 7 0 27 -12 44 -27 17 -16 57 -46
88 -68 62 -44 343 -249 359 -262 6 -5 116 -86 245 -181 304 -223 529 -388 558
-410 12 -9 46 -34 75 -55 28 -21 95 -69 147 -108 52 -38 104 -77 115 -85 11
-8 67 -48 125 -90 58 -42 146 -108 196 -145 49 -38 93 -69 97 -69 3 0 19 -12
34 -26 15 -14 40 -32 55 -40 27 -14 31 -12 125 58 54 40 103 76 108 81 12 9
571 419 664 486 35 25 70 52 77 59 7 6 16 12 20 12 4 0 14 7 23 16 14 13 61
48 256 190 11 8 49 35 84 62 91 66 143 104 283 206 68 50 125 93 126 98 2 4 8
8 13 8 5 0 17 7 26 15 16 13 213 158 601 442 l112 83 0 1550 0 1549 -42 12
c-24 7 -45 13 -48 14 -3 1 -79 25 -170 54 -91 29 -214 68 -275 87 -60 19 -117
39 -126 44 -14 7 -134 -34 -234 -80 -11 -5 -103 -43 -205 -85 -102 -42 -194
-79 -205 -84 -26 -11 -51 -21 -215 -88 -74 -30 -154 -64 -177 -74 -23 -10 -45
-19 -48 -19 -4 0 -21 -7 -38 -14 -68 -31 -499 -206 -508 -206 -5 0 -9 -4 -9
-8 0 -4 -8 -8 -17 -9 -10 -1 -54 -18 -97 -37 -77 -34 -81 -34 -115 -20 -20 8
-92 38 -161 66 -69 27 -183 75 -255 105 -71 30 -158 65 -193 79 -34 13 -79 31
-100 40 -120 53 -172 74 -172 67 0 -3 -6 -1 -12 5 -12 9 -151 67 -633 264 -93
39 -188 78 -210 87 -22 10 -47 16 -55 14z m600 -1661 c19 -11 94 -49 165 -87
72 -37 157 -82 190 -100 33 -18 119 -63 190 -100 72 -37 157 -82 190 -100 33
-18 114 -61 180 -95 66 -35 162 -85 213 -112 l93 -49 57 29 c51 25 157 81 376
196 38 20 75 41 83 47 7 6 13 8 13 4 0 -4 6 -3 13 2 16 13 90 53 492 263 66
35 144 76 173 92 40 21 54 25 58 15 8 -23 10 -98 2 -103 -4 -3 -5 -11 -2 -18
9 -23 10 -97 2 -102 -5 -3 -5 -10 -2 -16 4 -5 6 -153 6 -328 0 -275 -2 -321
-15 -335 -9 -8 -18 -15 -20 -15 -3 0 -155 -91 -338 -201 -184 -111 -350 -210
-369 -220 -19 -11 -98 -57 -174 -104 -77 -47 -143 -85 -147 -85 -4 0 -14 -6
-21 -14 -8 -7 -27 -21 -43 -30 -17 -9 -39 -22 -50 -29 -10 -6 -35 -22 -55 -33
l-36 -22 -139 84 c-77 47 -156 94 -175 106 -19 12 -37 22 -40 23 -3 0 -23 12
-45 26 -33 21 -337 204 -433 260 -140 83 -419 252 -427 260 -10 10 -15 909 -5
909 3 0 21 -8 40 -18z"/>
</g>
</svg>
